<mxfile host="Electron" agent="Mozilla/5.0 (X11; Linux x86_64) AppleWebKit/537.36 (KHTML, like Gecko) draw.io/24.7.17 Chrome/128.0.6613.36 Electron/32.0.1 Safari/537.36" version="24.7.17">
  <diagram name="Page-1" id="MLwT90gkbU0gql-JxhM4">
    <mxGraphModel dx="819" dy="470" grid="1" gridSize="10" guides="1" tooltips="1" connect="1" arrows="1" fold="1" page="1" pageScale="1" pageWidth="850" pageHeight="1100" math="0" shadow="0">
      <root>
        <mxCell id="0" />
        <mxCell id="1" parent="0" />
        <mxCell id="K17-zUQaaLb03S0lN9uQ-5" value="" style="rounded=0;whiteSpace=wrap;html=1;fillColor=none;dashed=1;dashPattern=8 8;strokeWidth=2;" parent="1" vertex="1">
          <mxGeometry x="740" y="1160" width="340" height="280" as="geometry" />
        </mxCell>
        <mxCell id="nIAZ2dd3incH0YXqtL2k-1" value="&lt;div&gt;&lt;br&gt;&lt;/div&gt;&lt;div&gt;&lt;br&gt;&lt;/div&gt;&lt;div&gt;&lt;br&gt;&lt;/div&gt;&lt;div style=&quot;text-align: left;&quot;&gt;&lt;span style=&quot;background-color: initial;&quot;&gt;&lt;b&gt;&lt;br&gt;&lt;/b&gt;&lt;/span&gt;&lt;/div&gt;&lt;div style=&quot;text-align: left;&quot;&gt;&lt;span style=&quot;background-color: initial;&quot;&gt;&lt;b&gt;&lt;br&gt;&lt;/b&gt;&lt;/span&gt;&lt;/div&gt;&lt;div style=&quot;text-align: left;&quot;&gt;&lt;span style=&quot;background-color: initial;&quot;&gt;&lt;b&gt;&lt;br&gt;&lt;/b&gt;&lt;/span&gt;&lt;/div&gt;&lt;div style=&quot;text-align: left;&quot;&gt;&lt;span style=&quot;background-color: initial;&quot;&gt;&lt;b&gt;&lt;br&gt;&lt;/b&gt;&lt;/span&gt;&lt;/div&gt;&lt;div style=&quot;text-align: left;&quot;&gt;&lt;span style=&quot;background-color: initial;&quot;&gt;&lt;b&gt;&lt;br&gt;&lt;/b&gt;&lt;/span&gt;&lt;/div&gt;&lt;div style=&quot;text-align: left;&quot;&gt;&lt;span style=&quot;background-color: initial;&quot;&gt;&lt;b&gt;&lt;br&gt;&lt;/b&gt;&lt;/span&gt;&lt;/div&gt;&lt;div style=&quot;text-align: left;&quot;&gt;&lt;span style=&quot;background-color: initial;&quot;&gt;&lt;b&gt;&lt;br&gt;&lt;/b&gt;&lt;/span&gt;&lt;/div&gt;&lt;div style=&quot;text-align: left;&quot;&gt;&lt;span style=&quot;background-color: initial;&quot;&gt;&lt;b&gt;&lt;br&gt;&lt;/b&gt;&lt;/span&gt;&lt;/div&gt;&lt;div style=&quot;text-align: left;&quot;&gt;&lt;span style=&quot;background-color: initial;&quot;&gt;&lt;b&gt;Someone else&#39;s&amp;nbsp;&lt;/b&gt;&lt;/span&gt;&lt;/div&gt;&lt;div style=&quot;text-align: left;&quot;&gt;&lt;span style=&quot;background-color: initial;&quot;&gt;&lt;b&gt;Recorder daemon&lt;/b&gt;&lt;/span&gt;&lt;/div&gt;" style="shape=cylinder3;whiteSpace=wrap;html=1;boundedLbl=1;backgroundOutline=1;size=15;fillColor=#dae8fc;strokeColor=#6c8ebf;" parent="1" vertex="1">
          <mxGeometry x="770" y="1185" width="170" height="240" as="geometry" />
        </mxCell>
        <mxCell id="nIAZ2dd3incH0YXqtL2k-3" value="&lt;div style=&quot;&quot;&gt;&lt;span style=&quot;background-color: initial;&quot;&gt;Agora Front&lt;/span&gt;&lt;/div&gt;" style="shape=document;whiteSpace=wrap;html=1;boundedLbl=1;fontStyle=1;fillColor=#f5f5f5;fontColor=#333333;strokeColor=#666666;align=left;" parent="1" vertex="1">
          <mxGeometry x="490" y="1130" width="210" height="220" as="geometry" />
        </mxCell>
        <mxCell id="nIAZ2dd3incH0YXqtL2k-35" value="Someone else&#39;s &lt;b&gt;Nostr Relay&lt;/b&gt;" style="shape=cylinder3;whiteSpace=wrap;html=1;boundedLbl=1;backgroundOutline=1;size=15;fillColor=#dae8fc;strokeColor=#6c8ebf;" parent="1" vertex="1">
          <mxGeometry x="865" y="955" width="70" height="90" as="geometry" />
        </mxCell>
        <mxCell id="nIAZ2dd3incH0YXqtL2k-43" style="edgeStyle=orthogonalEdgeStyle;rounded=0;orthogonalLoop=1;jettySize=auto;html=1;startArrow=classic;startFill=1;fillColor=#f5f5f5;strokeColor=#666666;" parent="1" source="nIAZ2dd3incH0YXqtL2k-44" target="nIAZ2dd3incH0YXqtL2k-3" edge="1">
          <mxGeometry relative="1" as="geometry">
            <Array as="points">
              <mxPoint x="580" y="1130" />
              <mxPoint x="580" y="1130" />
            </Array>
          </mxGeometry>
        </mxCell>
        <mxCell id="nIAZ2dd3incH0YXqtL2k-44" value="&lt;b&gt;Agora back&lt;/b&gt;" style="shape=cylinder3;whiteSpace=wrap;html=1;boundedLbl=1;backgroundOutline=1;size=15;fillColor=#f5f5f5;fontColor=#333333;strokeColor=#666666;align=left;" parent="1" vertex="1">
          <mxGeometry x="480" y="740" width="270" height="360" as="geometry" />
        </mxCell>
        <mxCell id="K17-zUQaaLb03S0lN9uQ-9" style="edgeStyle=orthogonalEdgeStyle;rounded=0;orthogonalLoop=1;jettySize=auto;html=1;entryX=1;entryY=0.5;entryDx=0;entryDy=0;startArrow=classic;startFill=1;fillColor=#f5f5f5;strokeColor=#666666;" parent="1" source="nIAZ2dd3incH0YXqtL2k-52" target="K17-zUQaaLb03S0lN9uQ-1" edge="1">
          <mxGeometry relative="1" as="geometry">
            <Array as="points">
              <mxPoint x="640" y="850" />
            </Array>
          </mxGeometry>
        </mxCell>
        <mxCell id="nIAZ2dd3incH0YXqtL2k-52" value="Agora&#39;s own &lt;b&gt;DB&lt;/b&gt;" style="shape=cylinder3;whiteSpace=wrap;html=1;boundedLbl=1;backgroundOutline=1;size=15;fillColor=#f5f5f5;fontColor=#333333;strokeColor=#666666;" parent="1" vertex="1">
          <mxGeometry x="610" y="950" width="55" height="80" as="geometry" />
        </mxCell>
        <mxCell id="nIAZ2dd3incH0YXqtL2k-56" value="Someone else&#39;s own &lt;b&gt;DB&lt;/b&gt;" style="shape=cylinder3;whiteSpace=wrap;html=1;boundedLbl=1;backgroundOutline=1;size=15;fillColor=#dae8fc;strokeColor=#6c8ebf;" parent="1" vertex="1">
          <mxGeometry x="1010" y="1230" width="60" height="80" as="geometry" />
        </mxCell>
        <mxCell id="nIAZ2dd3incH0YXqtL2k-57" style="edgeStyle=orthogonalEdgeStyle;rounded=0;orthogonalLoop=1;jettySize=auto;html=1;entryX=0;entryY=0;entryDx=0;entryDy=52.5;entryPerimeter=0;dashed=1;exitX=1;exitY=0.5;exitDx=0;exitDy=0;" parent="1" source="K17-zUQaaLb03S0lN9uQ-13" target="nIAZ2dd3incH0YXqtL2k-56" edge="1">
          <mxGeometry relative="1" as="geometry">
            <Array as="points">
              <mxPoint x="930" y="1340" />
              <mxPoint x="950" y="1340" />
              <mxPoint x="950" y="1283" />
            </Array>
          </mxGeometry>
        </mxCell>
        <mxCell id="nIAZ2dd3incH0YXqtL2k-73" value="Local-first auth front module" style="rounded=1;whiteSpace=wrap;html=1;fillColor=#f5f5f5;fontColor=#333333;strokeColor=#666666;align=left;" parent="1" vertex="1">
          <mxGeometry x="570" y="1140" width="117.5" height="140" as="geometry" />
        </mxCell>
        <mxCell id="nIAZ2dd3incH0YXqtL2k-74" value="1) Chooses to log in with phone number or with RariMe. &lt;br&gt;Self-generates asymmetric key pair." style="text;html=1;align=center;verticalAlign=middle;resizable=0;points=[];autosize=1;strokeColor=#d79b00;fillColor=#ffe6cc;" parent="1" vertex="1">
          <mxGeometry x="150" y="1050" width="320" height="40" as="geometry" />
        </mxCell>
        <mxCell id="nIAZ2dd3incH0YXqtL2k-76" style="edgeStyle=orthogonalEdgeStyle;rounded=0;orthogonalLoop=1;jettySize=auto;html=1;entryX=-0.01;entryY=0.086;entryDx=0;entryDy=0;fillColor=#ffe6cc;strokeColor=#d79b00;entryPerimeter=0;" parent="1" source="nIAZ2dd3incH0YXqtL2k-75" target="nIAZ2dd3incH0YXqtL2k-3" edge="1">
          <mxGeometry relative="1" as="geometry">
            <Array as="points">
              <mxPoint x="313" y="990" />
              <mxPoint x="313" y="1149" />
            </Array>
          </mxGeometry>
        </mxCell>
        <mxCell id="nIAZ2dd3incH0YXqtL2k-75" value="User" style="shape=umlActor;verticalLabelPosition=bottom;verticalAlign=top;html=1;outlineConnect=0;fillColor=#ffe6cc;strokeColor=#d79b00;" parent="1" vertex="1">
          <mxGeometry x="105" y="960" width="30" height="60" as="geometry" />
        </mxCell>
        <mxCell id="nIAZ2dd3incH0YXqtL2k-78" value="User&#39;s &lt;span style=&quot;background-color: initial;&quot;&gt;RariMe Wallet&lt;/span&gt;" style="swimlane;whiteSpace=wrap;html=1;startSize=30;fillColor=#ffe6cc;strokeColor=#d79b00;" parent="1" vertex="1">
          <mxGeometry x="30" y="1230" width="142.5" height="150" as="geometry" />
        </mxCell>
        <mxCell id="nIAZ2dd3incH0YXqtL2k-80" value="2.A) Associates zk proof of passport&amp;nbsp;&lt;div&gt;&lt;span style=&quot;background-color: initial;&quot;&gt;to public key,&amp;nbsp;&lt;/span&gt;&lt;span style=&quot;background-color: initial;&quot;&gt;containing disclosure &lt;br&gt;of citizenship, sex&lt;/span&gt;&lt;span style=&quot;background-color: initial;&quot;&gt;&amp;nbsp;&lt;/span&gt;&lt;span style=&quot;background-color: initial;&quot;&gt;as well as a&amp;nbsp;&lt;br&gt;&lt;/span&gt;&lt;span style=&quot;background-color: initial;&quot;&gt;unique &amp;amp; verifiable&amp;nbsp;&lt;/span&gt;&lt;span style=&quot;background-color: initial;&quot;&gt;yet anonymous identifier&lt;/span&gt;&lt;/div&gt;&lt;div&gt;&lt;div&gt;&lt;div&gt;for the scope of the whole Agora app&lt;/div&gt;&lt;/div&gt;&lt;/div&gt;" style="text;html=1;align=center;verticalAlign=middle;resizable=0;points=[];autosize=1;strokeColor=#d79b00;fillColor=#ffe6cc;" parent="1" vertex="1">
          <mxGeometry x="186.25" y="1215" width="260" height="90" as="geometry" />
        </mxCell>
        <mxCell id="nIAZ2dd3incH0YXqtL2k-81" style="edgeStyle=orthogonalEdgeStyle;rounded=0;orthogonalLoop=1;jettySize=auto;html=1;entryX=0.043;entryY=0.882;entryDx=0;entryDy=0;entryPerimeter=0;fillColor=#ffe6cc;strokeColor=#d79b00;" parent="1" source="nIAZ2dd3incH0YXqtL2k-82" target="nIAZ2dd3incH0YXqtL2k-3" edge="1">
          <mxGeometry relative="1" as="geometry">
            <mxPoint x="370" y="1450" as="targetPoint" />
            <Array as="points">
              <mxPoint x="499" y="1430" />
            </Array>
          </mxGeometry>
        </mxCell>
        <mxCell id="nIAZ2dd3incH0YXqtL2k-82" value="User" style="shape=umlActor;verticalLabelPosition=bottom;verticalAlign=top;html=1;outlineConnect=0;fillColor=#ffe6cc;strokeColor=#d79b00;" parent="1" vertex="1">
          <mxGeometry x="80" y="1420" width="30" height="60" as="geometry" />
        </mxCell>
        <mxCell id="nIAZ2dd3incH0YXqtL2k-84" value="Verifiable Moderation" style="text;html=1;align=center;verticalAlign=middle;resizable=0;points=[];autosize=1;" parent="1" vertex="1">
          <mxGeometry x="650" y="1060" width="140" height="30" as="geometry" />
        </mxCell>
        <mxCell id="K17-zUQaaLb03S0lN9uQ-1" value="Local-first auth back module" style="rounded=1;whiteSpace=wrap;html=1;fillColor=#f5f5f5;fontColor=#333333;strokeColor=#666666;align=left;" parent="1" vertex="1">
          <mxGeometry x="505" y="780" width="115" height="140" as="geometry" />
        </mxCell>
        <mxCell id="K17-zUQaaLb03S0lN9uQ-4" value="&lt;b&gt;Agora Watchdog Server&lt;br&gt;Permissionless: anybody can run one&lt;/b&gt;" style="text;html=1;align=center;verticalAlign=middle;resizable=0;points=[];autosize=1;strokeColor=none;fillColor=none;" parent="1" vertex="1">
          <mxGeometry x="715" y="1450" width="240" height="40" as="geometry" />
        </mxCell>
        <mxCell id="K17-zUQaaLb03S0lN9uQ-10" value="Existing relays: damus, nos.lol...etc" style="text;html=1;align=center;verticalAlign=middle;resizable=0;points=[];autosize=1;strokeColor=none;fillColor=none;" parent="1" vertex="1">
          <mxGeometry x="810" y="925" width="210" height="30" as="geometry" />
        </mxCell>
        <mxCell id="nIAZ2dd3incH0YXqtL2k-79" style="edgeStyle=orthogonalEdgeStyle;rounded=0;orthogonalLoop=1;jettySize=auto;html=1;entryX=-0.019;entryY=0.795;entryDx=0;entryDy=0;entryPerimeter=0;fillColor=#ffe6cc;strokeColor=#d79b00;" parent="1" source="nIAZ2dd3incH0YXqtL2k-78" target="nIAZ2dd3incH0YXqtL2k-3" edge="1">
          <mxGeometry relative="1" as="geometry">
            <mxPoint x="476.25" y="1305" as="targetPoint" />
          </mxGeometry>
        </mxCell>
        <mxCell id="K17-zUQaaLb03S0lN9uQ-15" style="edgeStyle=orthogonalEdgeStyle;rounded=0;orthogonalLoop=1;jettySize=auto;html=1;entryX=0.5;entryY=0;entryDx=0;entryDy=0;fillColor=#f5f5f5;strokeColor=#666666;" parent="1" source="K17-zUQaaLb03S0lN9uQ-11" target="nIAZ2dd3incH0YXqtL2k-29" edge="1">
          <mxGeometry relative="1" as="geometry" />
        </mxCell>
        <mxCell id="K17-zUQaaLb03S0lN9uQ-16" value="Proof" style="edgeLabel;html=1;align=center;verticalAlign=middle;resizable=0;points=[];" parent="K17-zUQaaLb03S0lN9uQ-15" vertex="1" connectable="0">
          <mxGeometry x="-0.1758" y="4" relative="1" as="geometry">
            <mxPoint as="offset" />
          </mxGeometry>
        </mxCell>
        <mxCell id="K17-zUQaaLb03S0lN9uQ-11" value="Proof verification" style="rounded=0;whiteSpace=wrap;html=1;fillColor=#f5f5f5;fontColor=#333333;strokeColor=#666666;" parent="1" vertex="1">
          <mxGeometry x="515" y="870" width="95" height="45" as="geometry" />
        </mxCell>
        <mxCell id="K17-zUQaaLb03S0lN9uQ-8" value="UCAN" style="ellipse;whiteSpace=wrap;html=1;fillColor=#f5f5f5;fontColor=#333333;strokeColor=#666666;" parent="1" vertex="1">
          <mxGeometry x="570" y="850" width="40" height="40" as="geometry" />
        </mxCell>
        <mxCell id="K17-zUQaaLb03S0lN9uQ-13" value="Proof verification" style="rounded=0;whiteSpace=wrap;html=1;fillColor=#dae8fc;strokeColor=#6c8ebf;" parent="1" vertex="1">
          <mxGeometry x="850" y="1335" width="80" height="35" as="geometry" />
        </mxCell>
        <mxCell id="K17-zUQaaLb03S0lN9uQ-14" value="UCAN" style="ellipse;whiteSpace=wrap;html=1;fillColor=#dae8fc;strokeColor=#6c8ebf;" parent="1" vertex="1">
          <mxGeometry x="905" y="1315" width="35" height="40" as="geometry" />
        </mxCell>
        <mxCell id="K17-zUQaaLb03S0lN9uQ-18" value="Proof generation" style="rounded=0;whiteSpace=wrap;html=1;fillColor=#f5f5f5;fontColor=#333333;strokeColor=#666666;" parent="1" vertex="1">
          <mxGeometry x="580" y="1230" width="95" height="45" as="geometry" />
        </mxCell>
        <mxCell id="K17-zUQaaLb03S0lN9uQ-12" value="UCAN" style="ellipse;whiteSpace=wrap;html=1;fillColor=#f5f5f5;fontColor=#333333;strokeColor=#666666;" parent="1" vertex="1">
          <mxGeometry x="640" y="1210" width="40" height="40" as="geometry" />
        </mxCell>
        <mxCell id="K17-zUQaaLb03S0lN9uQ-19" style="edgeStyle=orthogonalEdgeStyle;rounded=0;orthogonalLoop=1;jettySize=auto;html=1;entryX=0.424;entryY=0.927;entryDx=0;entryDy=0;entryPerimeter=0;fillColor=#ffe6cc;strokeColor=#d79b00;" parent="1" source="K17-zUQaaLb03S0lN9uQ-20" target="nIAZ2dd3incH0YXqtL2k-3" edge="1">
          <mxGeometry relative="1" as="geometry">
            <mxPoint x="499" y="1470" as="targetPoint" />
            <Array as="points">
              <mxPoint x="580" y="1576" />
            </Array>
          </mxGeometry>
        </mxCell>
        <mxCell id="K17-zUQaaLb03S0lN9uQ-20" value="User" style="shape=umlActor;verticalLabelPosition=bottom;verticalAlign=top;html=1;outlineConnect=0;fillColor=#ffe6cc;strokeColor=#d79b00;" parent="1" vertex="1">
          <mxGeometry x="80" y="1566" width="30" height="60" as="geometry" />
        </mxCell>
        <mxCell id="nIAZ2dd3incH0YXqtL2k-83" value="3) Use local-first account &lt;br&gt;(pub key &amp;amp; signatures)&amp;nbsp;&lt;div&gt;to interact with app&lt;/div&gt;" style="text;html=1;align=center;verticalAlign=middle;resizable=0;points=[];autosize=1;strokeColor=#d79b00;fillColor=#ffe6cc;" parent="1" vertex="1">
          <mxGeometry x="220" y="1530" width="160" height="60" as="geometry" />
        </mxCell>
        <mxCell id="K17-zUQaaLb03S0lN9uQ-22" value="2.B) Verifies phone number&#39;s ownership.&lt;br&gt;Associates phone number with public key." style="text;html=1;align=center;verticalAlign=middle;resizable=0;points=[];autosize=1;strokeColor=#d79b00;fillColor=#ffe6cc;" parent="1" vertex="1">
          <mxGeometry x="175" y="1385" width="250" height="40" as="geometry" />
        </mxCell>
        <mxCell id="CacQ8Da_a6PN6bGb_Sq--1" style="edgeStyle=orthogonalEdgeStyle;rounded=0;orthogonalLoop=1;jettySize=auto;html=1;entryX=1;entryY=0.25;entryDx=0;entryDy=0;fillColor=#f5f5f5;strokeColor=#666666;" parent="1" source="K17-zUQaaLb03S0lN9uQ-24" target="K17-zUQaaLb03S0lN9uQ-1" edge="1">
          <mxGeometry relative="1" as="geometry">
            <Array as="points">
              <mxPoint x="710" y="815" />
            </Array>
          </mxGeometry>
        </mxCell>
        <mxCell id="K17-zUQaaLb03S0lN9uQ-24" value="HTTP API" style="rounded=1;whiteSpace=wrap;html=1;fillColor=#f5f5f5;fontColor=#333333;strokeColor=#666666;" parent="1" vertex="1">
          <mxGeometry x="680" y="965" width="60" height="50" as="geometry" />
        </mxCell>
        <mxCell id="K17-zUQaaLb03S0lN9uQ-26" style="edgeStyle=orthogonalEdgeStyle;rounded=0;orthogonalLoop=1;jettySize=auto;html=1;entryX=0.5;entryY=1;entryDx=0;entryDy=0;entryPerimeter=0;fillColor=#f5f5f5;strokeColor=#666666;" parent="1" source="K17-zUQaaLb03S0lN9uQ-24" target="nIAZ2dd3incH0YXqtL2k-52" edge="1">
          <mxGeometry relative="1" as="geometry">
            <Array as="points">
              <mxPoint x="710" y="1050" />
              <mxPoint x="638" y="1050" />
            </Array>
          </mxGeometry>
        </mxCell>
        <mxCell id="K17-zUQaaLb03S0lN9uQ-28" value="UI &amp;amp; API Interaction" style="rounded=1;whiteSpace=wrap;html=1;fillColor=#f5f5f5;fontColor=#333333;strokeColor=#666666;" parent="1" vertex="1">
          <mxGeometry x="500" y="1230" width="60" height="50" as="geometry" />
        </mxCell>
        <mxCell id="K17-zUQaaLb03S0lN9uQ-6" style="edgeStyle=orthogonalEdgeStyle;rounded=0;orthogonalLoop=1;jettySize=auto;html=1;entryX=0.714;entryY=1;entryDx=0;entryDy=0;entryPerimeter=0;startArrow=classic;startFill=1;" parent="1" source="nIAZ2dd3incH0YXqtL2k-54" target="nIAZ2dd3incH0YXqtL2k-35" edge="1">
          <mxGeometry relative="1" as="geometry" />
        </mxCell>
        <mxCell id="K17-zUQaaLb03S0lN9uQ-31" style="edgeStyle=orthogonalEdgeStyle;rounded=0;orthogonalLoop=1;jettySize=auto;html=1;entryX=0.5;entryY=1;entryDx=0;entryDy=0;startArrow=classic;startFill=1;endArrow=none;endFill=0;" parent="1" source="K17-zUQaaLb03S0lN9uQ-13" target="K17-zUQaaLb03S0lN9uQ-29" edge="1">
          <mxGeometry relative="1" as="geometry">
            <Array as="points">
              <mxPoint x="838" y="1360" />
            </Array>
          </mxGeometry>
        </mxCell>
        <mxCell id="K17-zUQaaLb03S0lN9uQ-29" value="&lt;div&gt;&lt;br&gt;&lt;/div&gt;&lt;div&gt;&lt;br&gt;&lt;/div&gt;&lt;div&gt;&lt;br&gt;&lt;/div&gt;Request proofs" style="rounded=0;whiteSpace=wrap;html=1;fillColor=#dae8fc;strokeColor=#6c8ebf;align=left;" parent="1" vertex="1">
          <mxGeometry x="780" y="1227.5" width="115" height="87.5" as="geometry" />
        </mxCell>
        <mxCell id="nIAZ2dd3incH0YXqtL2k-54" value="Nostr&lt;div&gt;Client&lt;/div&gt;" style="rhombus;whiteSpace=wrap;html=1;fillColor=#dae8fc;strokeColor=#6c8ebf;" parent="1" vertex="1">
          <mxGeometry x="840" y="1225" width="60" height="60" as="geometry" />
        </mxCell>
        <mxCell id="CacQ8Da_a6PN6bGb_Sq--3" value="&lt;div&gt;&lt;br&gt;&lt;/div&gt;&lt;div&gt;&lt;br&gt;&lt;/div&gt;&lt;div&gt;&lt;br&gt;&lt;/div&gt;Broadcast proofs" style="rounded=0;whiteSpace=wrap;html=1;fillColor=#f5f5f5;strokeColor=#666666;align=left;fontColor=#333333;" parent="1" vertex="1">
          <mxGeometry x="490" y="995" width="115" height="87.5" as="geometry" />
        </mxCell>
        <mxCell id="nIAZ2dd3incH0YXqtL2k-29" value="&lt;b&gt;Nostr&lt;/b&gt;&lt;div&gt;&lt;b&gt;Client&lt;/b&gt;&lt;/div&gt;" style="rhombus;whiteSpace=wrap;html=1;fillColor=#f5f5f5;fontColor=#333333;strokeColor=#666666;" parent="1" vertex="1">
          <mxGeometry x="535" y="995" width="55" height="50" as="geometry" />
        </mxCell>
        <mxCell id="I_-AG5c3y0w_rHZlZTRH-2" style="edgeStyle=orthogonalEdgeStyle;rounded=0;orthogonalLoop=1;jettySize=auto;html=1;entryX=0.5;entryY=1;entryDx=0;entryDy=0;entryPerimeter=0;fillColor=#f5f5f5;strokeColor=#666666;exitX=1;exitY=0.75;exitDx=0;exitDy=0;" parent="1" source="CacQ8Da_a6PN6bGb_Sq--3" target="nIAZ2dd3incH0YXqtL2k-35" edge="1">
          <mxGeometry relative="1" as="geometry">
            <Array as="points">
              <mxPoint x="805" y="1061" />
              <mxPoint x="805" y="1045" />
            </Array>
            <mxPoint x="610" y="1070" as="sourcePoint" />
          </mxGeometry>
        </mxCell>
      </root>
    </mxGraphModel>
  </diagram>
</mxfile>
